<?xml version="1.0" encoding="UTF-8"?> <svg xmlns="http://www.w3.org/2000/svg" id="icon" viewBox="0 0 1000 1000"><path d="M900,440H860V280a40,40,0,0,0-40-40V160a40,40,0,0,0-40-40H180c-44.35,0-80,36.27-80,80h0V800a80.09,80.09,0,0,0,80,80H820a40,40,0,0,0,40-40V659.65l40-.11ZM180,158H780v84H180.89c-24.4,0-40.89-19.7-40.89-41.46C140,176.89,158,158,180,158ZM820,840H180a40,40,0,0,1-40-40V266.91C150.28,276,166,280,180.89,280H820V440H720a110,110,0,0,0,0,220h0l100-.25Zm40-218.35L720,622c-38.59,0-70-29.52-70-72s31.4-72,70-72H860Z"></path><circle cx="722.5" cy="550" r="25"></circle><rect x="200" y="183.28" width="540" height="35"></rect></svg> 