<?xml version="1.0" encoding="UTF-8"?> <svg xmlns="http://www.w3.org/2000/svg" id="icon" viewBox="0 0 1000 1000"><path d="M703.83,791.14c84.78-84.77,56.61-206,34-265.87l47.52-69.88c36.08.86,70.1-9.85,96.24-36,73.08-73.08,26.94-193.28-40.41-260.62S653.67,45.3,580.59,118.38c-26.13,26.14-36.84,60.16-36,96.24l-69.88,47.52c-59.91-22.58-181.1-50.75-265.87,34-102.6,102.6-56.53,280.9,50.19,402.36L118.79,838.79a30,30,0,1,0,42.42,42.42L301.47,741C422.93,847.67,601.23,893.74,703.83,791.14Zm97.79-592.76c52,52,79.3,136.87,37.57,178.6-39.16,39.16-119.3,20.3-177.88-38.29S583.86,200,623,160.81C664.75,119.08,749.63,146.4,801.62,198.38ZM621,379c28.54,28.54,64.57,51.37,101.9,64.42l-113.23,163c-37.48,34.32-112.94,23.08-176-40s-74.36-138.57-40-176l163-113.23C569.63,314.43,592.46,350.46,621,379ZM320.58,679.42C212.32,571.16,174.3,415.58,251.28,338.59c46.78-46.77,111.29-48,164.61-36.44l-59.57,40.5c-40.39,36-72.68,151.54,38.41,262.62s226.61,78.8,262.62,38.41l40.5-59.57c11.56,53.32,10.33,117.83-36.44,164.61C584.42,825.7,428.84,787.68,320.58,679.42Z"></path></svg> 