<?xml version="1.0" encoding="UTF-8"?> <!-- Generator: Adobe Illustrator 23.1.1, SVG Export Plug-In . SVG Version: 6.00 Build 0) --> <svg xmlns="http://www.w3.org/2000/svg" xmlns:xlink="http://www.w3.org/1999/xlink" id="icon" x="0px" y="0px" viewBox="0 0 1000 1000" style="enable-background:new 0 0 1000 1000;" xml:space="preserve"> <path d="M897.5,350.2c-22.8-14.1-55-26.7-95.5-37.3C721.1,291.7,613.8,280,500,280s-221.1,11.7-302.1,32.9 c-40.5,10.6-72.6,23.2-95.5,37.3C74.3,367.6,60,387.8,60,410v160c0,30.4,26.7,56.7,79.3,78.1c40.5,16.5,95.8,29.8,160.7,38.9V710 c0,38.6,31.4,70,70,70h120c38.6,0,70-31.4,70-70v-10h60c77.7,0,155.9-20.2,165.6-22.3c13.7-3.1,21.2-6.4,23.9-12.6 c37-10.2,66.6-22,88-35.3c28.2-17.5,42.5-37.6,42.5-59.8V410C940,387.8,925.7,367.6,897.5,350.2z M208.1,349.6 c77.6-21,181.4-31.6,291.9-31.6s214.2,11.1,291.9,31.6C870.8,370.3,900,391.3,900,410c0,10.2-8.8,16.7-23.5,25.8 c-19.2,11.9-48.4,23.2-84.5,32.6c-63.5,16.6-144.2,27.1-231.9,30.4V490c0-38.6-31.4-70-70-70H370c-37.4,0-68.1,29.6-69.9,66.6 c-59.3-8.6-109.3-20.7-145.8-35.5c-40.1-16.3-54.3-27.5-54.3-41C100,396.2,116.6,374.3,208.1,349.6z M154.3,611 c-40.1-16.3-51.5-29.3-54.3-39V465.2c11,9.2,24,16.6,39.3,22.9c40.5,16.5,95.9,29.8,160.7,38.9v119.6 C240.8,638,190.8,625.8,154.3,611z M520,713c0,16.5-13.5,30-30,30H370c-16.5,0-30-13.5-30-30V487c0-16.5,13.5-30,30-30h120 c16.5,0,30,13.5,30,30v12.9c-6.6,0.1-13.3,0.1-20,0.1h-82.5v-20h-35v100H380c-11,0-20,9-20,20s9,20,20,20h2.5v100h35v-20H520V713z M620,662H417.5v-42H500c11,0,20-9,20-20s-9-20-20-20h-82.5v-42H620c76.8,0,160,19.9,160,19.9l0,84.2C780,642.1,696.9,662,620,662z M820,620.3v-58.4c0-23.3-10.4-34.1-34.4-39.6c0,0-15.9-3.2-30.2-5.7C805.4,508,861.5,492,900,465.3V573 C895.8,588.3,864.4,609,820,620.3z M260,574c0,11-9,20-20,20s-20-9-20-20s9-20,20-20S260,563,260,574z M180,556.5c0,11-9,20-20,20 s-20-9-20-20c0-11,9-20,20-20S180,545.5,180,556.5z M620,600c0,11-9,20-20,20s-20-9-20-20s9-20,20-20S620,589,620,600z"></path> </svg> 